<?xml version="1.0" standalone="no"?>
<!DOCTYPE svg PUBLIC "-//W3C//DTD SVG 20010904//EN"
 "http://www.w3.org/TR/2001/REC-SVG-20010904/DTD/svg10.dtd">
<svg version="1.0" xmlns="http://www.w3.org/2000/svg"
 width="310.000000pt" height="310.000000pt" viewBox="0 0 310.000000 310.000000"
 preserveAspectRatio="xMidYMid meet">
<metadata>
Created by potrace 1.11, written by Peter Selinger 2001-2013
</metadata>
<g transform="translate(0.000000,310.000000) scale(0.100000,-0.100000)"
fill="#000000" stroke="none">
<path d="M1404 3093 c5 -9 -1 -12 -23 -9 -17 2 -33 1 -36 -2 -3 -3 -20 -7 -38
-7 -18 -1 -42 -7 -55 -14 -17 -9 -22 -9 -22 1 0 10 -2 10 -9 0 -4 -8 -11 -13
-15 -13 -27 4 -56 -1 -52 -8 3 -4 -6 -7 -19 -5 -14 1 -25 -1 -25 -5 0 -7 -7
-9 -50 -13 -11 -1 -20 -6 -20 -11 0 -5 -9 -7 -20 -4 -11 3 -18 1 -14 -4 3 -5
2 -9 -3 -10 -29 -3 -47 -9 -54 -21 -7 -10 -9 -10 -9 2 0 13 -1 13 -10 0 -5 -8
-13 -15 -17 -15 -4 -1 -19 -7 -33 -15 -14 -8 -27 -15 -30 -15 -20 -5 -60 -30
-60 -38 0 -6 -3 -7 -7 -4 -3 4 -12 2 -20 -4 -7 -6 -13 -8 -13 -3 0 5 -7 -2
-16 -14 -8 -12 -20 -20 -25 -17 -5 4 -9 1 -9 -6 0 -7 -3 -9 -7 -6 -3 4 -12 -2
-20 -13 -8 -11 -20 -20 -27 -20 -8 0 -17 -7 -20 -16 -4 -9 -9 -14 -12 -11 -7
6 -40 -23 -157 -138 -45 -44 -81 -83 -80 -87 2 -5 -4 -8 -13 -8 -8 0 -13 -4
-9 -9 3 -6 -3 -14 -12 -20 -10 -6 -14 -11 -9 -11 4 0 -6 -13 -23 -29 -18 -17
-32 -32 -32 -35 -2 -23 -13 -45 -20 -40 -5 3 -9 0 -9 -5 0 -25 -20 -52 -32
-44 -4 2 -5 -3 -2 -11 3 -9 1 -16 -6 -16 -6 0 -8 -4 -5 -10 3 -5 1 -10 -5 -10
-6 0 -8 -4 -5 -10 3 -5 1 -10 -5 -10 -7 0 -10 -6 -7 -13 3 -7 -4 -19 -14 -26
-11 -6 -17 -16 -14 -21 3 -5 1 -11 -5 -15 -6 -4 -8 -10 -5 -15 3 -5 -2 -16
-11 -24 -8 -9 -12 -16 -7 -16 4 0 1 -5 -7 -10 -13 -9 -13 -10 0 -10 9 0 11 -3
4 -8 -15 -10 -46 -91 -39 -103 4 -5 1 -9 -5 -9 -6 0 -8 -4 -5 -10 3 -5 2 -10
-3 -10 -5 0 -9 -12 -9 -26 0 -15 -5 -29 -10 -33 -5 -3 -8 -16 -7 -28 1 -13 -4
-23 -10 -23 -6 0 -4 -5 4 -10 8 -5 10 -10 3 -10 -6 0 -10 -11 -8 -25 1 -14 -2
-25 -7 -25 -5 0 -8 -6 -5 -12 2 -7 0 -21 -5 -30 -6 -12 -5 -18 3 -18 8 0 8 -4
2 -12 -6 -7 -9 -30 -9 -50 1 -21 -1 -38 -5 -38 -11 0 -7 -165 5 -172 8 -5 7
-8 -1 -8 -7 0 -13 -5 -13 -11 0 -5 3 -8 8 -6 4 3 8 -18 9 -46 1 -29 4 -68 7
-87 3 -19 7 -44 9 -55 2 -11 7 -27 12 -34 6 -10 4 -12 -6 -6 -11 7 -12 6 -3
-6 11 -13 20 -45 29 -97 2 -13 9 -30 17 -39 11 -14 11 -16 -2 -8 -12 7 -12 5
1 -11 9 -10 15 -29 14 -41 -1 -12 3 -21 9 -20 6 1 10 -6 8 -16 -2 -9 2 -17 7
-17 5 0 8 -9 6 -20 -3 -13 2 -20 12 -20 9 0 13 -6 9 -15 -3 -8 1 -20 8 -27 7
-7 14 -17 16 -23 11 -38 66 -132 100 -172 6 -7 8 -13 4 -13 -4 0 3 -9 15 -19
12 -11 22 -22 22 -25 -3 -20 0 -26 9 -21 5 3 10 0 10 -8 0 -8 7 -18 16 -21 8
-3 13 -10 9 -15 -3 -5 4 -12 15 -16 11 -3 20 -12 20 -20 0 -7 7 -16 16 -19 8
-3 12 -10 9 -16 -3 -5 -2 -10 3 -10 5 0 31 -21 59 -47 27 -27 68 -64 92 -83
23 -19 48 -40 54 -45 7 -6 29 -21 50 -34 20 -12 37 -27 37 -32 0 -6 5 -7 10
-4 5 3 10 1 10 -5 0 -6 5 -8 10 -5 6 3 10 1 10 -5 0 -6 4 -8 10 -5 5 3 10 2
10 -3 0 -11 60 -38 73 -34 5 1 6 -2 2 -8 -3 -5 1 -10 9 -10 9 0 16 -4 16 -9 0
-5 8 -8 18 -7 9 2 20 -2 24 -8 4 -6 12 -12 18 -12 5 -1 15 -2 21 -3 5 0 8 -4
5 -9 -2 -4 9 -8 26 -9 17 0 33 -5 37 -11 6 -9 69 -28 84 -24 4 1 7 -3 7 -10 0
-6 3 -8 7 -5 3 4 13 1 21 -6 13 -10 14 -9 7 3 -8 13 -6 13 7 2 9 -7 30 -14 47
-14 17 -1 31 -4 31 -9 0 -4 8 -6 18 -4 9 1 23 -2 30 -8 8 -6 12 -6 12 3 0 9 7
7 20 -5 11 -10 20 -14 20 -9 0 11 57 10 68 -1 4 -5 0 -5 -8 0 -13 7 -13 6 -1
-6 10 -11 15 -11 18 -1 3 6 8 10 12 8 13 -8 92 -15 87 -8 -2 4 4 8 14 8 10 0
17 -3 15 -6 -2 -3 18 -6 46 -6 27 0 49 4 49 8 0 5 9 4 20 -2 15 -8 20 -8 20 1
0 8 5 7 17 -2 11 -9 14 -10 9 -2 -5 9 1 12 23 9 17 -2 31 0 31 4 0 10 20 8 39
-4 10 -6 12 -5 7 2 -5 8 1 12 18 12 14 0 28 5 31 10 3 6 12 10 18 10 7 0 6 -4
-3 -11 -11 -8 -9 -9 10 -3 14 4 28 11 31 16 4 6 9 5 12 -3 4 -9 6 -10 6 -2 1
7 8 10 16 7 8 -4 15 -2 15 4 0 5 11 8 25 7 14 -2 23 0 20 5 -3 4 8 10 23 13
46 9 56 12 89 26 20 8 30 18 26 25 -4 6 1 5 10 -3 12 -9 17 -10 17 -2 0 7 4
10 9 7 5 -4 11 -2 13 4 2 6 14 12 27 15 13 2 35 15 49 27 14 13 21 16 17 8 -5
-9 1 -7 15 5 15 13 21 15 16 5 -4 -9 -2 -8 7 3 8 9 19 17 26 17 6 0 11 5 11
10 0 6 6 9 13 8 6 -2 11 3 9 10 -1 6 1 11 5 10 19 -4 64 23 57 34 -4 7 -3 8 4
4 7 -4 12 -3 12 3 0 6 7 7 17 4 9 -4 14 -2 11 3 -3 5 16 25 42 44 27 19 46 38
44 42 -5 7 10 12 29 9 4 0 7 6 7 15 0 8 5 12 10 9 6 -3 10 1 10 9 0 8 9 17 20
21 11 3 19 10 17 14 -1 4 16 24 37 44 21 20 35 37 30 37 -5 1 2 7 16 15 14 8
21 14 16 15 -6 0 3 14 19 30 16 17 25 30 20 30 -4 0 2 9 15 20 13 11 19 20 14
20 -5 0 -1 5 9 11 9 6 15 14 12 20 -4 5 1 12 9 15 9 3 16 14 16 25 0 10 8 22
17 28 10 5 15 13 11 17 -4 4 2 15 14 25 11 11 18 19 14 19 -5 0 4 21 19 46 15
26 21 43 14 39 -8 -5 -6 1 4 12 9 11 14 23 11 26 -4 4 1 9 10 13 9 3 13 10 10
15 -3 6 0 16 6 24 7 8 10 21 7 29 -3 8 -2 16 4 18 5 2 12 16 15 32 3 16 6 34
7 40 1 6 5 13 9 16 4 3 8 21 10 39 1 18 6 35 11 38 4 2 3 11 -4 19 -9 11 -8
15 3 19 10 4 14 16 12 35 -2 16 1 32 7 35 7 5 6 12 -2 21 -7 9 -8 14 -1 14 6
0 9 11 6 26 -3 16 -1 23 6 19 5 -3 10 1 10 10 0 9 -5 13 -11 9 -8 -5 -8 -1 0
13 7 14 7 24 -2 33 -8 9 -8 11 0 6 13 -7 15 142 1 150 -4 3 -4 13 1 23 7 12 6
26 -3 43 -9 16 -10 31 -4 42 5 9 5 16 0 16 -13 0 -11 30 2 30 6 0 3 5 -6 11
-9 5 -15 16 -12 23 3 8 0 17 -6 21 -8 5 -8 11 1 21 9 11 9 14 -1 14 -7 0 -10
6 -7 14 3 7 -2 24 -10 37 -9 12 -11 19 -5 15 7 -4 6 7 -3 29 -9 19 -12 35 -8
35 4 0 2 5 -5 12 -7 7 -12 22 -12 34 0 13 -4 26 -10 29 -5 3 -10 15 -10 26 0
10 -4 19 -10 19 -5 0 -10 11 -10 25 0 14 -4 25 -8 25 -5 0 -14 18 -21 40 -7
22 -16 38 -21 35 -6 -4 -10 4 -10 17 0 13 -9 34 -20 48 -11 14 -20 31 -20 38
0 7 -4 10 -10 7 -5 -3 -10 3 -10 13 0 11 -7 23 -16 26 -9 4 -14 13 -10 22 3 8
2 12 -3 9 -5 -3 -12 3 -16 14 -3 11 -12 22 -20 25 -8 3 -15 11 -15 18 0 8 -9
20 -20 28 -11 8 -20 19 -20 24 0 5 -16 24 -35 41 -19 18 -32 35 -28 39 3 3 1
6 -5 6 -17 0 -52 32 -52 47 0 7 -3 12 -8 10 -4 -1 -21 10 -37 26 -16 15 -33
27 -38 27 -4 0 -5 4 -2 10 4 6 -1 7 -12 3 -10 -3 -15 -2 -11 2 8 9 -31 42 -44
37 -5 -1 -8 2 -8 7 0 5 -14 20 -32 32 -17 13 -28 17 -23 9 5 -9 4 -11 -3 -6
-7 4 -12 15 -12 24 0 13 -2 14 -9 4 -7 -11 -9 -10 -15 3 -3 9 -10 13 -16 10
-5 -3 -10 -1 -10 4 0 6 -7 11 -15 11 -8 0 -15 5 -15 10 0 6 -7 10 -15 10 -16
0 -50 17 -77 38 -9 8 -22 11 -27 7 -6 -3 -11 -2 -11 3 0 8 -44 26 -45 19 -1
-1 -13 6 -28 16 -15 10 -32 15 -37 12 -6 -3 -10 0 -10 7 0 11 -2 10 -9 0 -7
-11 -9 -11 -14 2 -4 9 -18 16 -32 16 -14 0 -25 5 -25 11 0 8 -4 8 -14 0 -9 -8
-15 -8 -18 -2 -1 6 -18 11 -35 13 -18 1 -33 5 -33 8 0 8 -21 10 -67 10 -20 0
-33 4 -33 12 0 9 -3 9 -11 1 -12 -12 -39 -6 -51 11 -5 7 -8 6 -8 -3 0 -11 -3
-11 -15 -1 -12 10 -15 10 -15 -1 0 -11 -2 -11 -10 1 -7 11 -10 11 -10 2 0 -9
-6 -10 -17 -4 -22 10 -33 10 -52 -2 -10 -6 -12 -5 -7 2 4 7 2 12 -3 12 -6 0
-11 -6 -11 -12 0 -9 -3 -9 -8 -3 -8 12 -41 13 -58 3 -6 -4 -14 -4 -18 -1 -10
11 -46 11 -46 0 0 -5 -8 -3 -17 4 -11 9 -14 10 -9 2z"/>
</g>
</svg>
