<svg xmlns="http://www.w3.org/2000/svg" style="width:0; height:0; visibility:hidden;">
    <symbol id="add" viewBox="0 0 42 42">
      <title>add</title><g id="Layer_2" data-name="Layer 2"><g id="Icons"><polygon points="42 18 24 18 24 0 18 0 18 18 0 18 0 24 18 24 18 42 24 42 24 24 42 24 42 18"/></g></g>
    </symbol>
    <symbol id="back" viewBox="0 0 48 48">
      <path d="M0 0h48v48h-48z" fill="none"/><path d="M40 22h-24.34l11.17-11.17-2.83-2.83-16 16 16 16 2.83-2.83-11.17-11.17h24.34v-4z"/>
    </symbol>
    <symbol id="chevron" viewBox="0 0 24 14.83">
      <title>chevron</title><g id="Layer_2" data-name="Layer 2"><g id="Layer_1-2" data-name="Layer 1"><path d="M2.83,0,12,9.17,21.17,0,24,2.83l-12,12L0,2.83Z"/></g></g>
    </symbol>
    <symbol id="close" viewBox="0 0 48 48">
      <path d="M38 12.83l-2.83-2.83-11.17 11.17-11.17-11.17-2.83 2.83 11.17 11.17-11.17 11.17 2.83 2.83 11.17-11.17 11.17 11.17 2.83-2.83-11.17-11.17z"/><path d="M0 0h48v48h-48z" fill="none"/>
    </symbol>
    <symbol id="pin-point" viewBox="0 0 44 44">
      <title>pin-point_1</title><g id="Layer_2" data-name="Layer 2"><g id="Layer_1-2" data-name="Layer 1"><path d="M22,14a8,8,0,1,0,8,8A8,8,0,0,0,22,14Zm17.88,6A18,18,0,0,0,24,4.12V0H20V4.12A18,18,0,0,0,4.12,20H0v4H4.12A18,18,0,0,0,20,39.88V44h4V39.88A18,18,0,0,0,39.88,24H44V20ZM22,36A14,14,0,1,1,36,22,14,14,0,0,1,22,36Z"/></g></g>
    </symbol>
    <symbol id="pin" viewBox="0.464 -2.279 141.732 141.732">
      <g id="Livello_111"><path d="M0,137.174l34.864-28.711v-58.74L0,78.435V137.174z M70.629,77.856L36.465,49.723v58.74l34.164,28.134V77.856z    M81.893,21.947c0,6.062-4.912,10.975-10.974,10.975c-6.061,0-10.974-4.914-10.974-10.975c0-6.061,4.913-10.975,10.974-10.975   C76.98,10.973,81.893,15.887,81.893,21.947 M90.334,32.922c1.869-3.23,2.943-6.975,2.943-10.975C93.277,9.826,83.451,0,71.331,0   C59.209,0,49.383,9.826,49.383,21.947c0,5.331,1.9,10.215,5.061,14.018l16.906,24.39L88.5,35.61   c0.617-0.772,1.182-1.585,1.691-2.438l0.174-0.25H90.334z M72.27,136.399l33.631-27.694V49.967L72.27,77.662V136.399z    M142.66,137.174V78.435l-35.279-29.05v58.738L142.66,137.174z"/></g>
    </symbol>
    <symbol id="reload" viewBox="0 0 32 32">
      <g transform="translate(576 336)"><path d="M-559.511-333c-4.019,0-7.795,1.881-10.237,4.998l-3.736-2.16l-0.008,12.364l10.712-6.176l-3.442-1.992   c1.69-1.895,4.125-3.034,6.714-3.034c4.963,0,9.001,4.036,9.001,9c0,4.963-4.038,9-9.001,9v4c7.169,0,13.001-5.832,13.001-13   S-552.341-333-559.511-333L-559.511-333z"/></g>
    </symbol>
    <symbol id="save" viewBox="0 0 24 24">
      <g><rect height="4" width="3" x="12" y="2"/><rect height="1" width="8" x="8" y="16"/><rect height="1" width="8" x="8" y="19"/><path d="M19,0H1C0.4,0,0,0.4,0,1v22c0,0.6,0.4,1,1,1h22c0.6,0,1-0.4,1-1V5L19,0z M6,1h10v6H6V1z M18,22H6v-8h12V22z M22,22h-3v-9H5   v9H2V2h3v6h12V2h1.5L22,5.5V22z"/></g>
    </symbol>
    <symbol id="search" viewBox="0 0 39.04 39.04">
      <title>search</title><g id="Layer_2" data-name="Layer 2"><g id="Icons"><path d="M39,35.51,28.93,25.4a16,16,0,1,0-3.53,3.53L35.51,39ZM16,27A11,11,0,1,1,27,16,11,11,0,0,1,16,27Z"/></g></g>
    </symbol>
    <symbol id="tick" viewBox="0 0 512 512">
      <g><polygon class="st0" points="434.8,49 174.2,309.7 76.8,212.3 0,289.2 174.1,463.3 196.6,440.9 196.6,440.9 511.7,125.8 434.8,49     "/></g>
    </symbol></svg>