<svg xmlns="http://www.w3.org/2000/svg" style="width:0; height:0; visibility:hidden;">
    <symbol id="add" viewBox="0 0 42 42">
      <title>add</title><g id="Layer_2" data-name="Layer 2"><g id="Icons"><polygon points="42 18 24 18 24 0 18 0 18 18 0 18 0 24 18 24 18 42 24 42 24 24 42 24 42 18"/></g></g>
    </symbol>
    <symbol id="chevron" viewBox="0 0 24 14.83">
      <title>chevron</title><g id="Layer_2" data-name="Layer 2"><g id="Layer_1-2" data-name="Layer 1"><path d="M2.83,0,12,9.17,21.17,0,24,2.83l-12,12L0,2.83Z"/></g></g>
    </symbol>
    <symbol id="pin-point" viewBox="0 0 44 44">
      <title>pin-point_1</title><g id="Layer_2" data-name="Layer 2"><g id="Layer_1-2" data-name="Layer 1"><path d="M22,14a8,8,0,1,0,8,8A8,8,0,0,0,22,14Zm17.88,6A18,18,0,0,0,24,4.12V0H20V4.12A18,18,0,0,0,4.12,20H0v4H4.12A18,18,0,0,0,20,39.88V44h4V39.88A18,18,0,0,0,39.88,24H44V20ZM22,36A14,14,0,1,1,36,22,14,14,0,0,1,22,36Z"/></g></g>
    </symbol>
    <symbol id="reload" viewBox="0 0 24 22">
      <title>reload</title><g id="Layer_2" data-name="Layer 2"><g id="Layer_1-2" data-name="Layer 1"><g id="Layer_2-2" data-name="Layer 2"><g id="Layer_1-2-2" data-name="Layer 1-2"><g id="miu"><g id="Artboard-1"><path id="editor-redo-arrow-reload-glyph" d="M21.9,9.5A11,11,0,1,0,10.65,22h0V20A9,9,0,1,1,19.88,9.5H18L21,13l3-3.5Z"/></g></g></g></g></g></g>
    </symbol>
    <symbol id="search" viewBox="0 0 39.04 39.04">
      <title>search</title><g id="Layer_2" data-name="Layer 2"><g id="Icons"><path d="M39,35.51,28.93,25.4a16,16,0,1,0-3.53,3.53L35.51,39ZM16,27A11,11,0,1,1,27,16,11,11,0,0,1,16,27Z"/></g></g>
    </symbol></svg>