<svg xmlns="http://www.w3.org/2000/svg" style="width:0; height:0; visibility:hidden;">
    <symbol id="add" viewBox="0 0 80 80">
      <polygon points="61,37 43,37 43,19 37,19 37,37 19,37 19,43 37,43 37,61 43,61 43,43 61,43 "/>
    </symbol>
    <symbol id="chevron" viewBox="0 0 48 48">
      <path d="M14.83 16.42l9.17 9.17 9.17-9.17 2.83 2.83-12 12-12-12z"/><path d="M0-.75h48v48h-48z" fill="none"/>
    </symbol>
    <symbol id="pin-point" viewBox="0 0 48 48">
      <path d="M0 0h48v48h-48z" fill="none"/><path d="M24 16c-4.42 0-8 3.58-8 8s3.58 8 8 8 8-3.58 8-8-3.58-8-8-8zm17.88 6c-.92-8.34-7.54-14.96-15.88-15.88v-4.12h-4v4.12c-8.34.92-14.96 7.54-15.88 15.88h-4.12v4h4.12c.92 8.34 7.54 14.96 15.88 15.88v4.12h4v-4.12c8.34-.92 14.96-7.54 15.88-15.88h4.12v-4h-4.12zm-17.88 16c-7.73 0-14-6.27-14-14s6.27-14 14-14 14 6.27 14 14-6.27 14-14 14z"/>
    </symbol>
    <symbol id="reload" viewBox="0 0 24 21.99">
      <title>reload</title><g id="Layer_2" data-name="Layer 2"><g id="Layer_1-2" data-name="Layer 1"><g id="miu"><g id="Artboard-1"><path id="editor-redo-arrow-reload-glyph" d="M21.9,9.5A11,11,0,1,0,10.65,22h0V20A9,9,0,1,1,19.88,9.5H18L21,13l3-3.5Z"/></g></g></g></g>
    </symbol>
    <symbol id="search" viewBox="0 0 80 80">
      <path d="M59.446,55.911L49.337,45.802c1.922-2.64,3.069-5.88,3.069-9.396c0-8.837-7.163-16-16-16s-16,7.163-16,16s7.163,16,16,16  c3.516,0,6.756-1.147,9.396-3.069l10.109,10.109L59.446,55.911z M36.406,47.406c-6.065,0-11-4.935-11-11s4.935-11,11-11  s11,4.935,11,11S42.471,47.406,36.406,47.406z"/>
    </symbol></svg>