<svg xmlns="http://www.w3.org/2000/svg" style="width:0; height:0; visibility:hidden;">
    <symbol id="add" viewBox="0 0 80 80">
      <polygon points="61,37 43,37 43,19 37,19 37,37 19,37 19,43 37,43 37,61 43,61 43,43 61,43 "/>
    </symbol>
    <symbol id="bullhorn" viewBox="0 0 48 48">
      <path d="M 39.00,0.00L 21.00,6.00L12.00,6.00 C 7.029,6.00, 3.00,10.029, 3.00,15.00C 1.344,15.00,0.00,16.344,0.00,18.00 s 1.344,3.00, 3.00,3.00c0.00,3.702, 2.241,6.879, 5.436,8.262L 6.00,45.00c0.00,1.659, 1.344,3.00, 3.00,3.00l6.00,0.00 c 1.656,0.00, 3.00-1.341, 3.00-3.00l 2.25-15.00L21.00,30.00 l 18.00,6.00c 4.968,0.00, 9.00-8.061, 9.00-18.00 S 43.968,0.00, 39.00,0.00z M 12.00,18.00L9.00,18.00 L9.00,12.00 l3.00,0.00 L12.00,18.00 z M 18.00,18.00L15.00,18.00 L15.00,12.00 l3.00,0.00 L18.00,18.00 z M 39.00,30.00c-3.312,0.00-6.00-5.373-6.00-12.00s 2.688-12.00, 6.00-12.00s 6.00,5.373, 6.00,12.00S 42.312,30.00, 39.00,30.00z M 39.00,15.00l-2.724,0.00 C 36.108,15.942, 36.00,16.941, 36.00,18.00s 0.108,2.058, 0.276,3.00L39.00,21.00 c 1.659,0.00, 3.00-1.344, 3.00-3.00S 40.659,15.00, 39.00,15.00z"/>
    </symbol>
    <symbol id="chevron" viewBox="0 0 48 48">
      <path d="M14.83 16.42l9.17 9.17 9.17-9.17 2.83 2.83-12 12-12-12z"/><path d="M0-.75h48v48h-48z" fill="none"/>
    </symbol>
    <symbol id="gear" viewBox="0 0 512 512">
      <g><path d="M256.8,160c-25.7,0-49.8,10-67.9,28.1c-18.1,18.1-28.1,42.2-28.1,67.9s10,49.7,28.1,67.9C207,342,231.2,352,256.8,352   c25.7,0,49.8-10,67.9-28.1c18.1-18.1,28.1-42.2,28.1-67.9s-10-49.7-28.1-67.9C306.6,170,282.5,160,256.8,160z M256.8,336   c-44.3,0-80-35.9-80-80c0-44.1,35.7-80,80-80c44.3,0,80,35.9,80,80C336.8,300.1,301.1,336,256.8,336z"/><path d="M424.5,216h-15.2c-12.4,0-22.8-10.4-22.8-23.2c0-6.4,2.7-12.1,7.5-16.4l9.8-9.6c9.7-9.6,9.7-25.2,0-34.9l-22.3-22.1   c-4.4-4.4-10.9-7-17.5-7c-6.6,0-13,2.6-17.5,7l-9.4,9.4c-4.5,5-10.7,7.7-17.2,7.7c-12.8,0-23.7-10.4-23.7-22.7V89.1   c0-13.5-10.5-25.1-24-25.1h-30.4C228,64,217,75.5,217,89.1v15.2c0,12.3-10.6,22.7-23.4,22.7c-6.4,0-12.2-2.7-16.6-7.4l-9.7-9.6   c-4.4-4.5-10.9-7-17.5-7s-13,2.6-17.5,7L110,132c-9.6,9.6-9.6,25.3,0,34.8l9.4,9.4c5,4.5,7.8,10.2,7.8,16.7   c0,12.8-10.4,23.2-22.8,23.2H89.2C75.5,216,64,227.2,64,240.8V256v15.2c0,13.5,11.5,24.8,25.2,24.8h15.2   c12.4,0,22.8,10.4,22.8,23.2c0,6.4-2.8,12.3-7.8,16.8l-9.4,9.2c-9.6,9.6-9.6,25.2,0,34.8l22.3,22.2c4.4,4.5,10.9,7,17.5,7   c6.6,0,13-2.6,17.5-7l9.7-9.6c4.2-4.7,10.1-7.4,16.5-7.4c12.8,0,23.4,10.4,23.4,22.7v15.2c0,13.5,11,25.1,24.7,25.1h30.4   c13.6,0,24.9-11.5,24.9-25.1v-15.2c0-12.3,10.5-22.7,23.3-22.7c6.4,0,12.3,2.8,16.9,7.7l9.4,9.4c4.5,4.4,10.9,7,17.5,7   c6.6,0,13-2.6,17.5-7l22.3-22.2c9.6-9.6,9.6-25.3,0-34.9l-9.8-9.6c-4.8-4.3-7.5-10.4-7.5-16.7c0-12.8,10.4-23.6,22.8-23.6h15.2   c13.6,0,23.3-10.3,23.3-23.9V256v-15.2C447.8,227.2,438.1,216,424.5,216z M432,256v15.1c0,4.2-2.3,7.9-7.3,7.9h-15.2   c-10.3,0-20.1,4.4-27.5,12c-7.3,7.5-11.3,17.4-11.3,27.8c0,10.8,4.4,20.8,12.5,28.2l9.5,9.4c3.3,3.4,3.3,9,0,12.3l-22.3,22.2   c-1.6,1.5-3.9,2.4-6.3,2.4c-2.4,0-4.8-0.9-6.3-2.4l-9.1-9.1c-7.7-8.1-17.8-12.6-28.5-12.6c-10.4,0-20,4-27.5,11.2   c-7.6,7.4-11.6,17.1-11.6,27.5v15.2c0,4.9-4.3,9.1-8.9,9.1h-30.4c-4.6,0-8.7-4.2-8.7-9.1v-15.2c0-10.3-4.1-20.1-11.7-27.5   c-7.5-7.2-17.3-11.2-27.6-11.2c-10.6,0-20.8,4.5-28.1,12.4l-9.3,9.3c-1.6,1.5-3.9,2.4-6.3,2.4c-2.4,0-4.8-0.8-6.1-2.2l-0.1-0.1   l-0.1-0.1l-22.3-22.2c-3.3-3.3-3.3-8.8,0-12.2l9.1-9c8.2-7.6,12.7-17.7,12.7-28.5c0-10.4-4-19.9-11.3-27.4   c-7.4-7.6-17.2-11.5-27.5-11.5H89.2c-5,0-9.2-4.3-9.2-8.8V256v-15.2c0-4.5,4.2-8.8,9.2-8.8h15.2c10.3,0,20.1-3.9,27.5-11.5   c7.3-7.5,11.3-17.2,11.3-27.5c0-10.8-4.5-20.9-12.7-28.4l-9.2-9.1c-2.2-2.2-2.5-4.7-2.5-6.1c0-1.3,0.3-3.9,2.5-6.1l22.2-22.1   c1.6-1.5,3.9-2.4,6.3-2.4c2.4,0,4.8,0.8,6.1,2.2l0.1,0.1l0.1,0.1l9.4,9.4c7.4,8,17.4,12.4,28.1,12.4c10.4,0,20.1-4,27.6-11.2   c7.6-7.4,11.8-17.1,11.8-27.5V89.1c0-4.9,4-9.1,8.5-9.1H272c4.5,0,8,4.2,8,9.1v15.2c0,10.3,4.4,20.1,12,27.5   c7.5,7.2,17.4,11.2,27.8,11.2c10.8,0,21-4.5,28.6-12.6l9.1-9.1c1.6-1.5,3.9-2.4,6.3-2.4c2.4,0,4.8,0.9,6.3,2.3l22.3,22.1   c1.6,1.6,2.6,3.8,2.6,6.1c0,2.3-0.9,4.5-2.5,6.1l-9.5,9.4c-8,7.4-12.5,17.4-12.5,28.2c0,10.4,4,19.9,11.3,27.4   c7.4,7.6,17.2,11.5,27.5,11.5h15.2c5.4,0,7.4,5,7.5,9V256z"/></g>
    </symbol>
    <symbol id="pin-point" viewBox="0 0 48 48">
      <path d="M0 0h48v48h-48z" fill="none"/><path d="M24 16c-4.42 0-8 3.58-8 8s3.58 8 8 8 8-3.58 8-8-3.58-8-8-8zm17.88 6c-.92-8.34-7.54-14.96-15.88-15.88v-4.12h-4v4.12c-8.34.92-14.96 7.54-15.88 15.88h-4.12v4h4.12c.92 8.34 7.54 14.96 15.88 15.88v4.12h4v-4.12c8.34-.92 14.96-7.54 15.88-15.88h4.12v-4h-4.12zm-17.88 16c-7.73 0-14-6.27-14-14s6.27-14 14-14 14 6.27 14 14-6.27 14-14 14z"/>
    </symbol>
    <symbol id="search" viewBox="0 0 80 80">
      <path d="M59.446,55.911L49.337,45.802c1.922-2.64,3.069-5.88,3.069-9.396c0-8.837-7.163-16-16-16s-16,7.163-16,16s7.163,16,16,16  c3.516,0,6.756-1.147,9.396-3.069l10.109,10.109L59.446,55.911z M36.406,47.406c-6.065,0-11-4.935-11-11s4.935-11,11-11  s11,4.935,11,11S42.471,47.406,36.406,47.406z"/>
    </symbol></svg>